<mxfile host="app.diagrams.net" agent="Mozilla/5.0 (Windows NT 10.0; Win64; x64) AppleWebKit/537.36 (KHTML, like Gecko) Chrome/136.0.0.0 Safari/537.36 Edg/136.0.0.0" version="27.0.5">
  <diagram name="Página-1" id="VD2EuMpZDvNrIsIxyTrt">
    <mxGraphModel dx="634" dy="361" grid="1" gridSize="10" guides="1" tooltips="1" connect="1" arrows="1" fold="1" page="1" pageScale="1" pageWidth="827" pageHeight="1169" math="1" shadow="0">
      <root>
        <mxCell id="0" />
        <mxCell id="1" parent="0" />
        <mxCell id="t1Jesh8KolBoG4DJIQ0z-53" style="edgeStyle=orthogonalEdgeStyle;rounded=0;orthogonalLoop=1;jettySize=auto;html=1;entryX=0.5;entryY=0;entryDx=0;entryDy=0;" edge="1" parent="1" source="t1Jesh8KolBoG4DJIQ0z-1" target="t1Jesh8KolBoG4DJIQ0z-4">
          <mxGeometry relative="1" as="geometry" />
        </mxCell>
        <mxCell id="t1Jesh8KolBoG4DJIQ0z-1" value="&lt;pre&gt;Sleep&lt;/pre&gt;" style="shape=parallelogram;perimeter=parallelogramPerimeter;whiteSpace=wrap;html=1;fixedSize=1;fillColor=#d5e8d4;strokeColor=#82b366;dashed=1;" vertex="1" parent="1">
          <mxGeometry x="399" y="180" width="80" height="30" as="geometry" />
        </mxCell>
        <mxCell id="t1Jesh8KolBoG4DJIQ0z-3" value="Inicio" style="whiteSpace=wrap;html=1;fillColor=#d5e8d4;strokeColor=#82b366;" vertex="1" parent="1">
          <mxGeometry x="412.75" y="130" width="60" height="20" as="geometry" />
        </mxCell>
        <mxCell id="t1Jesh8KolBoG4DJIQ0z-8" style="edgeStyle=orthogonalEdgeStyle;rounded=0;orthogonalLoop=1;jettySize=auto;html=1;entryX=1;entryY=0.5;entryDx=0;entryDy=0;" edge="1" parent="1" source="t1Jesh8KolBoG4DJIQ0z-4" target="t1Jesh8KolBoG4DJIQ0z-1">
          <mxGeometry relative="1" as="geometry">
            <mxPoint x="544" y="210" as="targetPoint" />
            <Array as="points">
              <mxPoint x="514" y="270" />
              <mxPoint x="514" y="195" />
            </Array>
          </mxGeometry>
        </mxCell>
        <mxCell id="t1Jesh8KolBoG4DJIQ0z-31" style="edgeStyle=orthogonalEdgeStyle;rounded=0;orthogonalLoop=1;jettySize=auto;html=1;entryX=0.5;entryY=0;entryDx=0;entryDy=0;" edge="1" parent="1" source="t1Jesh8KolBoG4DJIQ0z-4" target="t1Jesh8KolBoG4DJIQ0z-12">
          <mxGeometry relative="1" as="geometry" />
        </mxCell>
        <mxCell id="t1Jesh8KolBoG4DJIQ0z-4" value="&lt;font style=&quot;font-size: 9px;&quot;&gt;Se activó la interrupción de INT0?&lt;/font&gt;" style="rhombus;whiteSpace=wrap;html=1;fillColor=#fff2cc;strokeColor=#d6b656;" vertex="1" parent="1">
          <mxGeometry x="399" y="230" width="80" height="80" as="geometry" />
        </mxCell>
        <mxCell id="t1Jesh8KolBoG4DJIQ0z-10" value="No" style="text;html=1;align=center;verticalAlign=middle;resizable=0;points=[];autosize=1;strokeColor=none;fillColor=none;" vertex="1" parent="1">
          <mxGeometry x="471.5" y="240" width="40" height="30" as="geometry" />
        </mxCell>
        <mxCell id="t1Jesh8KolBoG4DJIQ0z-11" value="Si" style="text;html=1;align=center;verticalAlign=middle;resizable=0;points=[];autosize=1;strokeColor=none;fillColor=none;" vertex="1" parent="1">
          <mxGeometry x="404" y="300" width="30" height="30" as="geometry" />
        </mxCell>
        <mxCell id="t1Jesh8KolBoG4DJIQ0z-32" style="edgeStyle=orthogonalEdgeStyle;rounded=0;orthogonalLoop=1;jettySize=auto;html=1;entryX=0.5;entryY=0;entryDx=0;entryDy=0;" edge="1" parent="1" source="t1Jesh8KolBoG4DJIQ0z-12" target="t1Jesh8KolBoG4DJIQ0z-26">
          <mxGeometry relative="1" as="geometry" />
        </mxCell>
        <mxCell id="t1Jesh8KolBoG4DJIQ0z-12" value="Apago INT0" style="whiteSpace=wrap;html=1;fillColor=#fff2cc;strokeColor=#d6b656;" vertex="1" parent="1">
          <mxGeometry x="405.25" y="330" width="67.5" height="30" as="geometry" />
        </mxCell>
        <mxCell id="t1Jesh8KolBoG4DJIQ0z-41" value="" style="edgeStyle=orthogonalEdgeStyle;rounded=0;orthogonalLoop=1;jettySize=auto;html=1;" edge="1" parent="1" source="t1Jesh8KolBoG4DJIQ0z-13" target="t1Jesh8KolBoG4DJIQ0z-40">
          <mxGeometry relative="1" as="geometry" />
        </mxCell>
        <mxCell id="t1Jesh8KolBoG4DJIQ0z-13" value="Reinicio WDT&lt;div&gt;y espero&lt;/div&gt;&lt;div&gt;250ms&lt;/div&gt;" style="whiteSpace=wrap;html=1;fillColor=#f8cecc;strokeColor=#b85450;" vertex="1" parent="1">
          <mxGeometry x="406.5" y="500" width="65" height="60" as="geometry" />
        </mxCell>
        <mxCell id="t1Jesh8KolBoG4DJIQ0z-48" style="edgeStyle=orthogonalEdgeStyle;rounded=0;orthogonalLoop=1;jettySize=auto;html=1;entryX=0.5;entryY=0;entryDx=0;entryDy=0;" edge="1" parent="1" source="t1Jesh8KolBoG4DJIQ0z-16" target="t1Jesh8KolBoG4DJIQ0z-18">
          <mxGeometry relative="1" as="geometry" />
        </mxCell>
        <mxCell id="t1Jesh8KolBoG4DJIQ0z-16" value="Alterno led" style="whiteSpace=wrap;html=1;fillColor=#f8cecc;strokeColor=#b85450;" vertex="1" parent="1">
          <mxGeometry x="406.5" y="660" width="65" height="30" as="geometry" />
        </mxCell>
        <mxCell id="t1Jesh8KolBoG4DJIQ0z-20" style="edgeStyle=orthogonalEdgeStyle;rounded=0;orthogonalLoop=1;jettySize=auto;html=1;entryX=1;entryY=0.5;entryDx=0;entryDy=0;exitX=0.09;exitY=1.047;exitDx=0;exitDy=0;exitPerimeter=0;" edge="1" parent="1" source="t1Jesh8KolBoG4DJIQ0z-19" target="t1Jesh8KolBoG4DJIQ0z-13">
          <mxGeometry relative="1" as="geometry">
            <mxPoint x="479" y="770" as="sourcePoint" />
            <Array as="points">
              <mxPoint x="479" y="759" />
              <mxPoint x="554" y="760" />
              <mxPoint x="554" y="525" />
            </Array>
          </mxGeometry>
        </mxCell>
        <mxCell id="t1Jesh8KolBoG4DJIQ0z-24" style="edgeStyle=orthogonalEdgeStyle;rounded=0;orthogonalLoop=1;jettySize=auto;html=1;entryX=0.5;entryY=1;entryDx=0;entryDy=0;" edge="1" parent="1" source="t1Jesh8KolBoG4DJIQ0z-18" target="t1Jesh8KolBoG4DJIQ0z-23">
          <mxGeometry relative="1" as="geometry" />
        </mxCell>
        <mxCell id="t1Jesh8KolBoG4DJIQ0z-18" value="Ya alterné&amp;nbsp;&lt;div&gt;20 veces?&lt;/div&gt;" style="rhombus;whiteSpace=wrap;html=1;fillColor=#f8cecc;strokeColor=#b85450;" vertex="1" parent="1">
          <mxGeometry x="399" y="720" width="80" height="80" as="geometry" />
        </mxCell>
        <mxCell id="t1Jesh8KolBoG4DJIQ0z-19" value="No" style="text;html=1;align=center;verticalAlign=middle;resizable=0;points=[];autosize=1;strokeColor=none;fillColor=none;" vertex="1" parent="1">
          <mxGeometry x="474" y="728" width="40" height="30" as="geometry" />
        </mxCell>
        <mxCell id="t1Jesh8KolBoG4DJIQ0z-25" style="edgeStyle=orthogonalEdgeStyle;rounded=0;orthogonalLoop=1;jettySize=auto;html=1;entryX=0;entryY=0.5;entryDx=0;entryDy=0;" edge="1" parent="1" source="t1Jesh8KolBoG4DJIQ0z-23" target="t1Jesh8KolBoG4DJIQ0z-1">
          <mxGeometry relative="1" as="geometry">
            <Array as="points">
              <mxPoint x="306" y="195" />
            </Array>
          </mxGeometry>
        </mxCell>
        <mxCell id="t1Jesh8KolBoG4DJIQ0z-23" value="Enciendo interrupt INT0" style="whiteSpace=wrap;html=1;fillColor=#f8cecc;strokeColor=#b85450;" vertex="1" parent="1">
          <mxGeometry x="274" y="490" width="65" height="50" as="geometry" />
        </mxCell>
        <mxCell id="t1Jesh8KolBoG4DJIQ0z-35" style="edgeStyle=orthogonalEdgeStyle;rounded=0;orthogonalLoop=1;jettySize=auto;html=1;entryX=0.5;entryY=0;entryDx=0;entryDy=0;" edge="1" parent="1" source="t1Jesh8KolBoG4DJIQ0z-26" target="t1Jesh8KolBoG4DJIQ0z-27">
          <mxGeometry relative="1" as="geometry" />
        </mxCell>
        <mxCell id="t1Jesh8KolBoG4DJIQ0z-26" value="Prendo LED" style="whiteSpace=wrap;html=1;fillColor=#fff2cc;strokeColor=#d6b656;" vertex="1" parent="1">
          <mxGeometry x="405.25" y="380" width="67.5" height="30" as="geometry" />
        </mxCell>
        <mxCell id="t1Jesh8KolBoG4DJIQ0z-37" style="edgeStyle=orthogonalEdgeStyle;rounded=0;orthogonalLoop=1;jettySize=auto;html=1;entryX=0.5;entryY=0;entryDx=0;entryDy=0;" edge="1" parent="1" source="t1Jesh8KolBoG4DJIQ0z-27" target="t1Jesh8KolBoG4DJIQ0z-13">
          <mxGeometry relative="1" as="geometry" />
        </mxCell>
        <mxCell id="t1Jesh8KolBoG4DJIQ0z-27" value="Enciendo interrupt por&lt;div&gt;WDT&lt;/div&gt;" style="whiteSpace=wrap;html=1;fillColor=#fff2cc;strokeColor=#d6b656;" vertex="1" parent="1">
          <mxGeometry x="405.25" y="430" width="67.5" height="50" as="geometry" />
        </mxCell>
        <mxCell id="t1Jesh8KolBoG4DJIQ0z-45" style="edgeStyle=orthogonalEdgeStyle;rounded=0;orthogonalLoop=1;jettySize=auto;html=1;entryX=0.5;entryY=0;entryDx=0;entryDy=0;" edge="1" parent="1" source="t1Jesh8KolBoG4DJIQ0z-40" target="t1Jesh8KolBoG4DJIQ0z-16">
          <mxGeometry relative="1" as="geometry" />
        </mxCell>
        <mxCell id="t1Jesh8KolBoG4DJIQ0z-40" value="Se activa interrupción por WDT" style="whiteSpace=wrap;html=1;fillColor=#f8cecc;strokeColor=#b85450;" vertex="1" parent="1">
          <mxGeometry x="406.5" y="584.5" width="65" height="50" as="geometry" />
        </mxCell>
        <mxCell id="t1Jesh8KolBoG4DJIQ0z-51" style="edgeStyle=orthogonalEdgeStyle;rounded=0;orthogonalLoop=1;jettySize=auto;html=1;entryX=0.551;entryY=-0.07;entryDx=0;entryDy=0;entryPerimeter=0;" edge="1" parent="1" source="t1Jesh8KolBoG4DJIQ0z-3" target="t1Jesh8KolBoG4DJIQ0z-1">
          <mxGeometry relative="1" as="geometry" />
        </mxCell>
        <mxCell id="t1Jesh8KolBoG4DJIQ0z-52" value="Si" style="text;html=1;align=center;verticalAlign=middle;resizable=0;points=[];autosize=1;strokeColor=none;fillColor=none;" vertex="1" parent="1">
          <mxGeometry x="365" y="728" width="30" height="30" as="geometry" />
        </mxCell>
      </root>
    </mxGraphModel>
  </diagram>
</mxfile>
